<?xml version="1.0" ?><svg style="enable-background:new 0 0 48 48;" version="1.1" viewBox="0 0 48 48" xml:space="preserve" xmlns="http://www.w3.org/2000/svg" xmlns:xlink="http://www.w3.org/1999/xlink"><style type="text/css">
	.st0{display:none;}
	.st1{fill:#FFFFFF;stroke:#FFFFFF;stroke-width:0.7;stroke-linecap:round;stroke-linejoin:round;stroke-miterlimit:10;}
	.st2{fill:#FFFFFF;}
</style><g class="st0" id="Padding__x26__Artboard"/><g id="Icons"><g><g><line class="st1" x1="17.99155" x2="19.11916" y1="26.07767" y2="20.59263"/><line class="st1" x1="20.35879" x2="21.4864" y1="26.07767" y2="20.59263"/><path class="st1" d="M19.87065,28.45214l-1.01046,4.91516c-0.13424,0.65298-0.7767,1.18724-1.42769,1.18724     s-1.07379-0.53426-0.93955-1.18724l1.01046-4.91516"/><path class="st1" d="M19.60731,18.21815l0.73709-3.58546c0.13424-0.65298,0.7767-1.18724,1.42769-1.18724     s1.07379,0.53426,0.93955,1.18724l-0.7371,3.58546"/></g><g><line class="st1" x1="26.65564" x2="27.78325" y1="26.07767" y2="20.59263"/><path class="st1" d="M28.27139,18.21815l0.7371-3.58546c0.13424-0.65298,0.7767-1.18724,1.42769-1.18724     s1.07379,0.53426,0.93955,1.18724l-0.73709,3.58546"/><line class="st1" x1="29.02287" x2="30.15048" y1="26.07767" y2="20.59263"/><path class="st1" d="M28.53473,28.45214l-1.01046,4.91516c-0.13424,0.65298-0.7767,1.18724-1.42769,1.18724     c-0.65099,0-1.07379-0.53426-0.93955-1.18724l1.01046-4.91516"/></g><g><path class="st1" d="M30.63863,18.21815h3.75207c0.65099,0,1.07379,0.53426,0.93955,1.18724s-0.7767,1.18724-1.42769,1.18724     h-3.75207"/><line class="st1" x1="28.27139" x2="21.97454" y1="18.21815" y2="18.21815"/><line class="st1" x1="27.78325" x2="21.4864" y1="20.59263" y2="20.59263"/><path class="st1" d="M19.11916,20.59263h-3.8941c-0.65099,0-1.07379-0.53426-0.93955-1.18724s0.7767-1.18724,1.42769-1.18724     h3.8941"/></g><g><line class="st1" x1="26.16749" x2="19.87065" y1="28.45214" y2="28.45214"/><line class="st1" x1="26.65564" x2="20.35879" y1="26.07767" y2="26.07767"/><path class="st1" d="M29.02287,26.07767h3.75207c0.65099,0,1.07623,0.52238,0.93955,1.18724     c-0.13424,0.65298-0.7767,1.18724-1.42769,1.18724h-3.75207"/><path class="st1" d="M17.50341,28.45214h-3.8941c-0.65099,0-1.07379-0.53426-0.93955-1.18724     c0.13668-0.66485,0.7767-1.18724,1.42769-1.18724h3.8941"/></g></g></g></svg>